<svg xmlns="http://www.w3.org/2000/svg" height="800" width="1200" viewBox="-144.72855 -94.31075 1254.3141 565.8645"><linearGradient y2="75.368" x2="387.903" y1="235.48" x1="441.835" gradientUnits="userSpaceOnUse" id="a"><stop offset=".236" stop-color="#e7eaef"/><stop offset=".403" stop-color="#d6dae2"/><stop offset=".721" stop-color="#adb2c0"/><stop offset=".929" stop-color="#9097a7"/></linearGradient><path d="M0 377.238L250.199 0h601.902v278.438H739.729V70.035h-54.871c-1.84 11.246-2.697 15.242-5.623 23.703-4.229 11.799-7.109 16.002-16.596 27.396 11.301 12.434 15.729 19.416 21.314 33.611 5.551 13.336 8.859 29.436 8.859 43.074 0 19.824-6.006 36.709-18.906 53.121-5.902 7.832-13.063 14.363-21.266 19.41-10.227 6.07-19.867 8.086-38.361 8.086H331.433v-49.115H229.211l-98.477 147.915zm445.627-160.855h110.631c15.746 0 25.918-9.975 25.918-25.406 0-15.014-10.465-25.922-24.877-25.922H445.627zm-166.688-54.451h52.494V80.69zm166.502-58.504h95.301c15.645 0 23.584-6.363 23.584-18.91 0-16.209-15.096-18.641-24.096-18.641h-94.789z" fill="url(#a)"/><linearGradient y2="61.948" x2="935.187" y1="-6.801" x1="882.988" gradientUnits="userSpaceOnUse" id="b"><stop offset=".005" stop-color="#dce0e9"/><stop offset=".357" stop-color="#e7eaef"/><stop offset="1" stop-color="#909cab"/></linearGradient><path fill="url(#b)" d="M864.623 0h100.234v70.035H864.623z"/><linearGradient y2="64.678" x2="989.865" y1="64.678" x1="925.318" gradientUnits="userSpaceOnUse" id="c"><stop offset="0" stop-color="#e6edf9"/><stop offset=".278" stop-color="#c0cad9"/><stop offset=".886" stop-color="#99a1b0"/></linearGradient><path fill="url(#c)" d="M875.344 59.32l-10.721 10.715h100.234L954.083 59.32z"/><linearGradient y2="53.206" x2="971.02" y1="2.935" x1="946.359" gradientUnits="userSpaceOnUse" id="d"><stop offset="0" stop-color="#e6edf9"/><stop offset=".278" stop-color="#c0cad9"/><stop offset=".886" stop-color="#99a1b0"/></linearGradient><path fill="url(#d)" d="M964.857 0l-10.773 10.984-.001 48.336 10.774 10.715z"/><linearGradient y2="5.747" x2="966.688" y1="4.801" x1="793.675" gradientUnits="userSpaceOnUse" id="e"><stop offset="0" stop-color="#e6edf9"/><stop offset=".278" stop-color="#c0cad9"/><stop offset=".886" stop-color="#99a1b0"/></linearGradient><path fill="url(#e)" d="M864.623 0l10.721 10.984h78.74L964.857 0z"/><linearGradient y2="70.707" x2="893.777" y1="41.439" x1="870.716" gradientUnits="userSpaceOnUse" id="f"><stop offset=".129" stop-color="#bbc4d8"/><stop offset=".753" stop-color="#f2f7fa"/></linearGradient><path fill="url(#f)" d="M864.623 70.035l10.721-10.715V10.984L864.623 0z"/><linearGradient y2="116.034" x2="184.365" y1="394.698" x1="-19.906" gradientUnits="userSpaceOnUse" id="g"><stop offset=".129" stop-color="#bbc4d8"/><stop offset=".753" stop-color="#f2f7fa"/></linearGradient><path fill="url(#g)" d="M0 377.243l20.014-10.78L255.949 10.984 250.199 0z"/><linearGradient y2="371.853" x2="21.513" y1="371.853" x1="-36.482" gradientUnits="userSpaceOnUse" id="h"><stop offset="0" stop-color="#e6edf9"/><stop offset=".278" stop-color="#c0cad9"/><stop offset=".886" stop-color="#99a1b0"/></linearGradient><path fill="url(#h)" d="M130.734 377.243l-5.867-10.78H20.014L0 377.243z"/><linearGradient y2="4.881" x2="919.057" y1="6.143" x1="148.788" gradientUnits="userSpaceOnUse" id="i"><stop offset="0" stop-color="#e6edf9"/><stop offset=".278" stop-color="#c0cad9"/><stop offset=".886" stop-color="#99a1b0"/></linearGradient><path fill="url(#i)" d="M250.199 0l5.75 10.984h585.434L852.101 0z"/><linearGradient y2="297.926" x2="229.219" y1="297.926" x1="124.867" gradientUnits="userSpaceOnUse" id="j"><stop offset=".129" stop-color="#bbc4d8"/><stop offset=".753" stop-color="#f2f7fa"/></linearGradient><path fill="url(#j)" d="M130.734 377.243l98.477-147.921h.008l-5.731-10.715h-.015l-98.606 147.856z"/><linearGradient y2="274.682" x2="599.283" y1="272.791" x1="837.528" gradientUnits="userSpaceOnUse" id="k"><stop offset="0" stop-color="#e6edf9"/><stop offset=".278" stop-color="#c0cad9"/><stop offset=".886" stop-color="#99a1b0"/></linearGradient><path fill="url(#k)" d="M739.729 278.438h112.373l-10.719-10.72h-90.942z"/><linearGradient y2="39.861" x2="698.069" y1="118.311" x1="655.535" gradientUnits="userSpaceOnUse" id="l"><stop offset="0" stop-color="#e6edf9"/><stop offset=".278" stop-color="#c0cad9"/><stop offset=".886" stop-color="#99a1b0"/></linearGradient><path d="M675.863 59.32c-.779 3.896-1.303 6.75-1.564 8.828-1.816 11.178-2.588 14.553-5.193 22.092-3.637 10.135-5.719 13.246-14.811 24.166-1.297 1.559-3.123 3.896-5.717 7.018l14.063-.299c9.492-11.385 12.365-15.588 16.594-27.387 2.926-8.461 3.783-12.457 5.623-23.703l-8.93-10.715z" fill="url(#l)"/><linearGradient y2="64.678" x2="674.166" y1="64.678" x1="748.881" gradientUnits="userSpaceOnUse" id="m"><stop offset="0" stop-color="#e6edf9"/><stop offset=".278" stop-color="#c0cad9"/><stop offset=".886" stop-color="#99a1b0"/></linearGradient><path fill="url(#m)" d="M739.729 70.035l10.712-10.715h-74.513l8.929 10.715z"/><linearGradient y2="-48.951" x2="846.742" y1="471.144" x1="846.742" gradientUnits="userSpaceOnUse" id="n"><stop offset="0" stop-color="#e6edf9"/><stop offset=".278" stop-color="#c0cad9"/><stop offset=".886" stop-color="#99a1b0"/></linearGradient><path fill="url(#n)" d="M841.383 267.718l10.719 10.72V0l-10.719 10.984z"/><linearGradient y2="143.195" x2="398.778" y1="281.916" x1="639.648" gradientUnits="userSpaceOnUse" id="o"><stop offset="0" stop-color="#e6edf9"/><stop offset=".278" stop-color="#c0cad9"/><stop offset=".886" stop-color="#99a1b0"/></linearGradient><path d="M654.559 128.178c10.393 11.436 14.289 17.412 19.484 30.662 5.199 12.479 8.051 27.025 8.051 38.98 0 17.664-5.189 31.959-16.625 46.51-5.455 7.277-11.691 12.736-18.445 16.895-8.318 4.934-16.115 6.492-32.744 6.492H342.479v-.006l-11.045 10.727H614.28c18.494 0 28.135-2.016 38.361-8.086 8.203-5.047 15.363-11.578 21.266-19.41 12.9-16.412 18.906-33.297 18.906-53.121 0-13.639-3.309-29.738-8.859-43.074-5.586-14.195-10.014-21.178-21.314-33.611l.002-.004-14.063.293z" fill="url(#o)"/><linearGradient y2="61.481" x2="742.215" y1="485.664" x1="753.552" gradientUnits="userSpaceOnUse" id="p"><stop offset=".129" stop-color="#bbc4d8"/><stop offset=".753" stop-color="#f2f7fa"/></linearGradient><path fill="url(#p)" d="M739.729 278.438l10.712-10.72V59.32l-10.712 10.715z"/><linearGradient y2="249.423" x2="337.728" y1="269.494" x1="354.932" gradientUnits="userSpaceOnUse" id="q"><stop offset=".129" stop-color="#bbc4d8"/><stop offset=".753" stop-color="#f2f7fa"/></linearGradient><path fill="url(#q)" d="M331.433 278.438l11.046-10.727v-49.104l-11.046 10.715z"/><linearGradient y2="223.965" x2="342.479" y1="223.965" x1="223.473" gradientUnits="userSpaceOnUse" id="r"><stop offset="0" stop-color="#e6edf9"/><stop offset=".278" stop-color="#c0cad9"/><stop offset=".886" stop-color="#99a1b0"/></linearGradient><path fill="url(#r)" d="M331.433 229.322l11.046-10.715H223.473l5.746 10.715z"/><linearGradient y2="210.939" x2="449.596" y1="183.841" x1="432.58" gradientUnits="userSpaceOnUse" id="s"><stop offset=".129" stop-color="#bbc4d8"/><stop offset=".753" stop-color="#f2f7fa"/><stop offset="1" stop-color="#bbc4d8"/></linearGradient><path fill="url(#s)" d="M434.91 227.098l10.717-10.744V165.07l-10.717-10.716z"/><linearGradient y2="167.077" x2="462.753" y1="233.257" x1="570.531" gradientUnits="userSpaceOnUse" id="t"><stop offset=".17" stop-color="#e6edf9"/><stop offset=".279" stop-color="#dce3f0"/><stop offset=".467" stop-color="#c0cad9"/><stop offset=".886" stop-color="#99a1b0"/></linearGradient><path d="M434.91 154.334v.02l10.717 10.717v-.016h111.672c14.412 0 24.877 10.908 24.877 25.922 0 15.432-10.172 25.406-25.918 25.406H445.627v-.029l-10.717 10.744h121.348c21.572 0 36.633-14.809 36.633-36.115 0-20.787-15.328-36.648-35.592-36.648H434.91z" fill="url(#t)"/><linearGradient y2="70.014" x2="470.724" y1="129.666" x1="566.356" gradientUnits="userSpaceOnUse" id="u"><stop offset=".17" stop-color="#e6edf9"/><stop offset=".279" stop-color="#dce3f0"/><stop offset=".467" stop-color="#c0cad9"/><stop offset=".886" stop-color="#99a1b0"/></linearGradient><path d="M540.23 65.877c9 0 24.096 2.432 24.096 18.641 0 12.547-7.939 18.91-23.584 18.91h-95.301l-10.713 10.641v.074h106.014c21.566 0 34.299-10.908 34.299-29.625 0-18.186-13.252-29.361-34.818-29.361H434.729l10.713 10.721h94.788z" fill="url(#u)"/><linearGradient y2="107.599" x2="447.734" y1="74.042" x1="433.171" gradientUnits="userSpaceOnUse" id="v"><stop offset=".129" stop-color="#bbc4d8"/><stop offset=".753" stop-color="#f2f7fa"/><stop offset="1" stop-color="#bbc4d8"/></linearGradient><path fill="url(#v)" d="M445.441 65.877l-10.712-10.721v58.912l10.712-10.64z"/><linearGradient y2="86.404" x2="322.83" y1="162.252" x1="270.685" gradientUnits="userSpaceOnUse" id="w"><stop offset=".129" stop-color="#bbc4d8"/><stop offset=".753" stop-color="#f2f7fa"/><stop offset="1" stop-color="#bbc4d8"/></linearGradient><path fill="url(#w)" d="M325.723 70.541h-.02l-66.527 102.097 19.763-10.706 52.495-81.243z"/><linearGradient y2="83.627" x2="336.957" y1="222.289" x1="336.957" gradientUnits="userSpaceOnUse" id="x"><stop offset=".129" stop-color="#bbc4d8"/><stop offset=".753" stop-color="#f2f7fa"/></linearGradient><path fill="url(#x)" d="M342.479 70.541l-11.045 10.148-.001 81.243 11.046 10.707z"/><linearGradient y2="167.286" x2="342.479" y1="167.286" x1="259.176" gradientUnits="userSpaceOnUse" id="y"><stop offset="0" stop-color="#b8c0ce"/><stop offset="0" stop-color="#bbc3d1"/><stop offset=".187" stop-color="#d1d8e5"/><stop offset=".368" stop-color="#e1e7f4"/><stop offset=".494" stop-color="#e6edf9"/><stop offset=".593" stop-color="#e3eaf6"/><stop offset=".704" stop-color="#dae1ec"/><stop offset=".821" stop-color="#cad1dc"/><stop offset=".94" stop-color="#b3bbc5"/><stop offset="1" stop-color="#a6adb7"/></linearGradient><path fill="url(#y)" d="M278.939 161.932l-19.763 10.708h83.303l-11.046-10.708z"/><linearGradient y2="260.358" x2="891.856" y1="240.44" x1="869.846" gradientUnits="userSpaceOnUse" id="z"><stop offset="0" stop-color="#e6edf9"/><stop offset=".278" stop-color="#c0cad9"/><stop offset=".886" stop-color="#99a1b0"/></linearGradient><path d="M893.131 260.932c-.461-.432-1.082-.809-1.846-1.137 1.846-.133 3.346-.783 4.484-1.955 1.109-1.166 1.68-2.521 1.68-4.094 0-1.111-.357-2.17-1.01-3.143-.67-1.008-1.566-1.688-2.711-2.094-1.137-.406-2.955-.592-5.449-.592h-7.404v21.506h3.469v-9.137h2.037c1.221 0 2.17.238 2.762.73.932.674 2.123 2.357 3.637 5.012l1.898 3.395h4.238l-2.605-4.203c-1.276-2.005-2.334-3.419-3.18-4.288zm-4.557-3.608h-4.23v-6.508h3.963c1.656 0 2.822.135 3.445.389a3.198 3.198 0 011.467 1.102c.346.521.537 1.082.537 1.707 0 1.008-.379 1.791-1.113 2.393-.733.595-2.088.917-4.069.917zm18.342-8.978c-1.77-3.195-4.264-5.662-7.463-7.375-3.201-1.732-6.479-2.602-9.824-2.602-3.33 0-6.605.869-9.811 2.602-3.205 1.713-5.668 4.18-7.49 7.375-1.787 3.197-2.684 6.537-2.684 10.041 0 3.439.896 6.75 2.658 9.926 1.766 3.172 4.236 5.613 7.402 7.375 3.182 1.762 6.484 2.631 9.924 2.631 3.455 0 6.758-.869 9.934-2.631 3.168-1.762 5.641-4.203 7.402-7.375 1.76-3.176 2.629-6.486 2.629-9.926.001-3.504-.89-6.844-2.677-10.041zm-2.824 18.314c-1.469 2.631-3.521 4.686-6.189 6.125-2.625 1.492-5.393 2.223-8.273 2.223-2.871 0-5.609-.73-8.268-2.223-2.658-1.439-4.715-3.494-6.184-6.125-1.463-2.66-2.225-5.4-2.225-8.273 0-2.904.762-5.697 2.256-8.354 1.516-2.689 3.574-4.744 6.236-6.184 2.658-1.439 5.402-2.174 8.184-2.174 2.777 0 5.512.734 8.17 2.174 2.682 1.439 4.748 3.494 6.236 6.184 1.494 2.656 2.256 5.449 2.256 8.354 0 2.873-.73 5.613-2.199 8.273z" fill="url(#z)"/><linearGradient y2="67.698" x2="324.797" y1="76.757" x1="338.71" gradientUnits="userSpaceOnUse" id="A"><stop offset="0" stop-color="#e6edf9"/><stop offset=".278" stop-color="#c0cad9"/><stop offset=".886" stop-color="#99a1b0"/></linearGradient><path fill="url(#A)" d="M325.723 70.541l5.711 10.148 11.045-10.148z"/></svg>